<svg width="117" height="104" viewBox="0 0 117 104" fill="none" xmlns="http://www.w3.org/2000/svg">
<rect x="39.5273" y="15" width="3.09998" height="30.9998" fill="#4F7F94"/>
<rect x="34.875" y="18.1016" width="6.19997" height="30.2248" fill="white"/>
<rect x="29.4512" y="20.4219" width="6.19997" height="30.2248" fill="white"/>
<rect x="30.2227" y="50.6484" width="8.52496" height="30.9998" fill="#6896AA"/>
<rect x="34.0977" y="48.3281" width="8.52496" height="30.9998" fill="#6896AA"/>
<rect x="36.4238" y="48.3281" width="8.52496" height="28.6749" fill="#6896AA"/>
<rect x="37.9727" y="48.3281" width="10.8499" height="27.1249" fill="#6896AA"/>
<rect x="41.8477" y="51.4219" width="10.8499" height="20.9249" fill="#6896AA"/>
<rect x="23.25" y="54.5234" width="10.8499" height="24.7999" fill="#6896AA"/>
<rect x="13.9512" y="54.5234" width="10.8499" height="20.1499" fill="#6896AA"/>
<rect x="9.29883" y="59.9531" width="10.8499" height="13.1749" fill="#6896AA"/>
<rect x="3.09766" y="53.75" width="10.8499" height="14.7249" fill="#6896AA"/>
<rect x="24.0273" y="23.5234" width="6.19997" height="30.9998" fill="white"/>
<rect x="20.1523" y="25.0781" width="6.19997" height="30.2248" fill="white"/>
<rect x="14.7227" y="26.625" width="6.19997" height="30.2248" fill="white"/>
<rect x="8.9707" y="29.7266" width="7.74996" height="31.7748" fill="white"/>
<rect x="3.09766" y="34.375" width="6.19997" height="30.2248" fill="white"/>
<rect x="37.2012" y="15" width="3.09998" height="3.09998" fill="#4F7F94"/>
<rect x="34.0977" y="16.5469" width="3.09998" height="3.09998" fill="#4F7F94"/>
<rect x="27.125" y="20.4219" width="3.09998" height="3.09998" fill="#4F7F94"/>
<rect x="23.25" y="21.9766" width="4.64998" height="3.09998" fill="#4F7F94"/>
<rect x="20.1523" y="23.5234" width="3.09998" height="3.09998" fill="#4F7F94"/>
<rect x="13.9512" y="26.625" width="3.09998" height="3.09998" fill="#4F7F94"/>
<rect x="17.0488" y="25.0781" width="5.42497" height="3.09998" fill="#4F7F94"/>
<rect x="10.8477" y="28.1719" width="3.09998" height="3.09998" fill="#4F7F94"/>
<rect y="34.375" width="3.09998" height="30.9998" fill="#4F7F94"/>
<rect x="3.09766" y="32.8281" width="3.09998" height="3.09998" fill="#4F7F94"/>
<rect x="3.09766" y="65.375" width="3.09998" height="3.09998" fill="#4F7F94"/>
<rect x="6.20117" y="68.4766" width="3.09998" height="3.09998" fill="#4F7F94"/>
<rect x="9.29883" y="71.5781" width="3.09998" height="3.09998" fill="#4F7F94"/>
<rect x="12.4023" y="71.5781" width="3.09998" height="3.09998" fill="#4F7F94"/>
<rect x="15.5" y="71.5781" width="3.09998" height="3.09998" fill="#4F7F94"/>
<rect x="17.8262" y="74.6719" width="3.09998" height="3.09998" fill="#4F7F94"/>
<rect x="22.4727" y="77" width="3.09998" height="3.09998" fill="#4F7F94"/>
<rect x="20.1523" y="74.6719" width="3.09998" height="3.09998" fill="#4F7F94"/>
<rect x="24.7988" y="77" width="3.09998" height="3.09998" fill="#4F7F94"/>
<rect x="27.125" y="79.3281" width="3.09998" height="3.09998" fill="#4F7F94"/>
<rect x="29.4512" y="80.875" width="3.09998" height="3.09998" fill="#4F7F94"/>
<rect x="31.7773" y="81.6484" width="3.09998" height="3.09998" fill="#4F7F94"/>
<rect x="34.0977" y="80.875" width="3.09998" height="3.09998" fill="#4F7F94"/>
<rect x="36.4238" y="79.3281" width="3.09998" height="3.09998" fill="#4F7F94"/>
<rect x="39.5273" y="77.7734" width="3.09998" height="3.09998" fill="#4F7F94"/>
<rect x="42.625" y="75.4531" width="3.09998" height="3.09998" fill="#4F7F94"/>
<rect x="45.7227" y="73.125" width="3.09998" height="3.09998" fill="#4F7F94"/>
<rect x="48.0488" y="71.5781" width="3.09998" height="3.09998" fill="#4F7F94"/>
<rect x="51.1523" y="68.4766" width="3.09998" height="3.87498" fill="#4F7F94"/>
<rect x="6.20117" y="31.2734" width="3.09998" height="3.09998" fill="#4F7F94"/>
<rect x="8.52734" y="29.7266" width="3.09998" height="3.09998" fill="#4F7F94"/>
<rect x="29.4512" y="18.1016" width="5.42497" height="3.09998" fill="#4F7F94"/>
<rect x="40.2988" y="45.2266" width="3.09998" height="3.09998" fill="#4F7F94"/>
<rect x="37.2012" y="46.7734" width="3.09998" height="3.09998" fill="#4F7F94"/>
<rect x="30.2227" y="50.6484" width="3.09998" height="3.09998" fill="#4F7F94"/>
<rect x="26.3477" y="52.2031" width="4.64998" height="3.09998" fill="#4F7F94"/>
<rect x="23.25" y="53.75" width="3.09998" height="3.09998" fill="#4F7F94"/>
<rect x="17.0488" y="56.8516" width="3.09998" height="3.09998" fill="#4F7F94"/>
<rect x="20.1523" y="55.2969" width="5.42497" height="3.09998" fill="#4F7F94"/>
<rect x="13.9512" y="58.3984" width="3.09998" height="3.09998" fill="#4F7F94"/>
<rect x="6.20117" y="63.0469" width="3.09998" height="3.09998" fill="#4F7F94"/>
<rect x="9.29883" y="61.5" width="3.09998" height="3.09998" fill="#4F7F94"/>
<rect x="11.625" y="59.9531" width="3.09998" height="3.09998" fill="#4F7F94"/>
<rect x="32.5488" y="48.3281" width="5.42497" height="3.09998" fill="#4F7F94"/>
<rect x="43.4023" y="46.7734" width="3.09998" height="3.09998" fill="#4F7F94"/>
<rect x="38.75" y="52.9766" width="3.09998" height="3.09998" fill="#4F7F94"/>
<rect x="41.0762" y="50.6484" width="3.09998" height="3.09998" fill="#4F7F94"/>
<rect x="45.7227" y="53.75" width="4.64998" height="3.09998" fill="#4F7F94"/>
<rect x="41.0762" y="56.8516" width="4.64998" height="3.09998" fill="#4F7F94"/>
<rect x="33.3262" y="55.2969" width="5.42497" height="3.09998" fill="#4F7F94"/>
<rect x="27.125" y="57.625" width="6.19997" height="3.09998" fill="#4F7F94"/>
<rect x="24.0273" y="60.7266" width="3.09998" height="3.09998" fill="#4F7F94"/>
<rect x="14.7227" y="66.1484" width="3.09998" height="3.09998" fill="#4F7F94"/>
<rect x="17.8262" y="63.8281" width="5.42497" height="3.09998" fill="#4F7F94"/>
<rect x="32.5488" y="63.0469" width="3.09998" height="3.09998" fill="#4F7F94"/>
<rect x="27.125" y="64.6016" width="5.42497" height="3.09998" fill="#4F7F94"/>
<rect x="24.0273" y="66.9219" width="3.09998" height="3.09998" fill="#4F7F94"/>
<rect x="19.375" y="69.25" width="4.64998" height="3.09998" fill="#4F7F94"/>
<rect x="35.6523" y="60.7266" width="3.09998" height="3.09998" fill="#4F7F94"/>
<rect x="46.5" y="48.3281" width="3.09998" height="3.09998" fill="#4F7F94"/>
<rect x="49.5977" y="49.875" width="3.09998" height="3.09998" fill="#4F7F94"/>
<rect x="51.9238" y="51.4219" width="3.09998" height="3.09998" fill="#4F7F94"/>
<path fill-rule="evenodd" clip-rule="evenodd" d="M37.2551 10.8154H37.2632H40.2021V4.26117H44.4625V0H51.017V4.26117H54.6166V10.8154H64.1258H64.1287H67.0862V7.86622H73.3203V4.26117H77.2503V0.000212193H83.8048V4.26117H86.4132V10.8154H89.3608L90.6364 10.8154V17.3699L89.3608 17.3699H87.4141V17.3702H93.9317V23.9251H95.2285V30.4796H95.2272V37.0338H93.9317H92.6195V42.6044H87.4141V45.2266H84.1265V47.5199H77.572V45.2266H77.562V50.1425H71.0075V45.2266H71.0062V51.7815H64.4591H64.4517H57.9045V45.2266H57.8945V50.1425H51.34V47.5199H44.8016V45.2266H39.5661V42.6045H35.6191V37.0345H33V30.48H39.5545V37.0332H39.5661V23.925H39.5545V30.4787H33V23.9241H34.6433V17.3703H39.5661V17.3699H37.2632H37.2551V10.8154Z" fill="#607F90"/>
<rect x="59.4043" y="29.3281" width="6.03759" height="6.03759" fill="white"/>
<rect x="57.1621" y="25.875" width="6.03759" height="6.03759" fill="white"/>
<rect x="60.2734" y="31.9141" width="8.62513" height="15.5252" fill="white"/>
<rect x="55.0918" y="30.1875" width="6.03759" height="18.1128" fill="white"/>
<rect x="49.9102" y="33.6406" width="6.03759" height="6.03759" fill="white"/>
<rect x="47.3359" y="38.8125" width="6.03759" height="6.03759" fill="white"/>
<rect x="47.3359" y="38.8125" width="10.3502" height="6.03759" fill="white"/>
<rect x="47.3359" y="43.9844" width="18.1128" height="6.03759" fill="white"/>
<rect x="48.5371" y="47.4375" width="6.03759" height="6.03759" fill="white"/>
<rect x="53.7188" y="48.2969" width="10.3502" height="6.03759" fill="white"/>
<rect x="70.6211" y="48.2969" width="6.03759" height="6.03759" fill="white"/>
<rect x="61.9961" y="48.2969" width="9.48764" height="6.03759" fill="white"/>
<rect x="56.3086" y="59.5156" width="20.7003" height="7.76261" fill="white"/>
<rect x="42.1543" y="40.5391" width="6.03759" height="6.03759" fill="white"/>
<rect x="65.4395" y="37.9531" width="6.03759" height="11.2127" fill="white"/>
<rect x="70.6211" y="41.3984" width="6.03759" height="7.76261" fill="white"/>
<rect x="75.7852" y="44.8516" width="6.03759" height="6.03759" fill="white"/>
<path fill-rule="evenodd" clip-rule="evenodd" d="M50.5065 23.201V21.5625H47.2292V23.201H45.5859V26.4783H47.2292V28.1167H50.5065V26.4783H52.1324V23.201H50.5065ZM73.2761 24.0629V22.4244H69.9988V24.0629H68.3555V27.3402H69.9988V28.9786H73.2761V27.3402H74.902V24.0629H73.2761ZM57.837 36.0527H61.1142V32.7755H57.837V36.0527ZM60.7716 39.1783H59.133V37.5396H60.7716V39.1783ZM59.1196 40.817H57.4937V42.4552H55.8551V40.8166H57.481V39.1784H59.1196V40.817ZM65.6841 40.817H64.0455V39.1784H65.6841V40.817ZM54.2118 40.817H55.8504V39.1784H54.2118V40.817ZM62.3935 40.817H60.7676V39.1784H62.4062V40.8166H64.0321V42.4552H62.3935V40.817Z" fill="#0F0F0F"/>
<rect x="40.7812" y="52.6094" width="15.5252" height="14.6627" fill="#607F90"/>
<rect x="36.4668" y="55.2031" width="6.03759" height="10.3502" fill="#607F90"/>
<rect x="33.0078" y="59.5156" width="6.03759" height="6.03759" fill="#607F90"/>
<rect x="33.0078" y="62.1016" width="6.03759" height="6.03759" fill="white"/>
<rect x="33.0078" y="59.5156" width="6.03759" height="6.03759" fill="white"/>
<rect x="35.5977" y="65.5469" width="6.9001" height="6.03759" fill="white"/>
<rect x="42.502" y="62.1016" width="6.03759" height="6.03759" fill="#607F90"/>
<rect x="46.8145" y="62.1016" width="6.03759" height="6.03759" fill="#607F90"/>
<rect x="50.2578" y="65.5469" width="6.03759" height="9.48764" fill="#607F90"/>
<rect x="50.2578" y="75.0391" width="6.03759" height="18.9753" fill="#607F90"/>
<rect x="54.5703" y="67.2734" width="6.03759" height="8.62513" fill="#607F90"/>
<rect x="54.5703" y="75.8984" width="22.4253" height="17.2503" fill="#607F90"/>
<rect x="60.6133" y="67.2734" width="6.03759" height="8.62513" fill="#607F90"/>
<rect x="64.9258" y="64.6875" width="12.0752" height="12.9377" fill="#607F90"/>
<rect x="78.7246" y="47.4375" width="6.03759" height="9.48764" fill="#607F90"/>
<rect x="75.2812" y="50.8906" width="6.03759" height="6.03759" fill="#607F90"/>
<rect x="55.4395" y="54.3359" width="23.2878" height="6.03759" fill="#607F90"/>
<rect x="83.0371" y="50.0234" width="6.03759" height="6.03759" fill="#607F90"/>
<rect x="77.002" y="55.2031" width="15.5252" height="6.03759" fill="#607F90"/>
<rect x="86.4883" y="84.5234" width="6.03759" height="6.03759" fill="#607F90"/>
<rect x="92.5312" y="84.5234" width="6.03759" height="8.62513" fill="#607F90"/>
<rect x="92.5312" y="79.3516" width="6.03759" height="6.03759" fill="#607F90"/>
<rect x="98.5664" y="75.0391" width="6.03759" height="6.03759" fill="#607F90"/>
<rect x="102.879" y="71.5859" width="6.03759" height="6.03759" fill="#607F90"/>
<rect x="104.6" y="67.2734" width="6.03759" height="6.03759" fill="#607F90"/>
<rect x="98.5664" y="81.0781" width="6.03759" height="9.48764" fill="#607F90"/>
<rect x="102.008" y="81.9375" width="6.03759" height="6.03759" fill="#607F90"/>
<rect x="102.879" y="77.625" width="8.62513" height="6.03759" fill="#607F90"/>
<rect x="108.051" y="51.75" width="8.62513" height="27.6004" fill="#607F90"/>
<rect x="83.0371" y="87.9766" width="6.03759" height="6.03759" fill="#607F90"/>
<rect x="78.7246" y="90.5625" width="6.03759" height="6.03759" fill="#607F90"/>
<rect x="72.6895" y="90.5625" width="6.03759" height="6.03759" fill="#607F90"/>
<rect x="67.5078" y="92.2891" width="6.03759" height="6.03759" fill="#607F90"/>
<rect x="62.3438" y="91.4219" width="6.03759" height="6.03759" fill="#607F90"/>
<rect x="58.8828" y="91.4219" width="6.03759" height="6.03759" fill="#607F90"/>
<rect x="53.7188" y="90.5625" width="6.03759" height="6.03759" fill="#607F90"/>
<rect x="49.4062" y="94.0156" width="6.03759" height="6.03759" fill="#607F90"/>
<rect x="44.2227" y="90.5625" width="6.03759" height="12.9377" fill="#607F90"/>
<rect x="39.0508" y="94.875" width="6.03759" height="6.03759" fill="#607F90"/>
<rect x="36.4668" y="91.4219" width="12.0752" height="6.03759" fill="#607F90"/>
<rect x="39.9102" y="85.3906" width="12.0752" height="6.03759" fill="#607F90"/>
<rect x="45.9453" y="81.0781" width="6.03759" height="6.03759" fill="#607F90"/>
<rect x="76.1328" y="59.5156" width="18.9753" height="31.913" fill="#607F90"/>
<rect x="48.5352" y="71.5859" width="6.03759" height="6.03759" fill="white"/>
<rect x="50.2578" y="77.625" width="6.03759" height="6.03759" fill="#537486"/>
<rect x="55.4395" y="80.2109" width="6.03759" height="6.03759" fill="#537486"/>
<rect x="60.6133" y="77.625" width="6.03759" height="6.03759" fill="#537486"/>
<rect x="65.7871" y="75.8984" width="6.03759" height="6.03759" fill="#537486"/>
</svg>
